<svg xmlns="http://www.w3.org/2000/svg" xmlns:xlink="http://www.w3.org/1999/xlink" viewBox="0 0 268 250" preserveAspectRatio="xMidYMid" style="display: block; shape-rendering: auto; background: rgba(255, 255, 255, 0);" width="268" height="250"><style type="text/css">
  .ld-text text {
    text-anchor: middle;
    dominant-baseline: middle;
    font-size: 68px;
    opacity: 0;
    user-select: none;
    pointer-events: none;
  }
</style>
<g style="transform-origin:134px 125px;transform:scale(1)" class="ld-text">
<g transform="translate(134,125)">
  <g transform="scale(0.8500) translate(-4,59)"><g class="path" style="opacity: 1; transform-origin: -124.28px 14.81px; transform: matrix3d(1, 0, 0, 0, 0, 1, 0, 0, 0, 0, 1, 0, 0, 0, 0, 1); animation: 1.66667s linear -0.948148s 50 normal forwards running animate-qqhmh83z2c; transform-box: view-box;"><path d="M40.80 52.01L7.20 52.01L7.20-3.99L40.80-3.99L40.80 2.57L14.80 2.57L14.80 19.61L37.20 19.61L37.20 26.01L14.80 26.01L14.80 45.45L40.80 45.45L40.80 52.01" style="fill: rgb(0, 51, 161);" transform="translate(-148.280,-26.004)"></path></g><g class="path" style="opacity: 1; transform-origin: -84.96px 17.53px; transform: matrix3d(1, 0, 0, 0, 0, 1, 0, 0, 0, 0, 1, 0, 0, 0, 0, 1); animation: 1.66667s linear -0.82963s 50 normal forwards running animate-qqhmh83z2c; transform-box: view-box;"><path d="M67.04 52.01L59.52 52.01L42.80 12.33L49.36 9.61L63.52 43.85L77.68 9.61L83.84 12.33L67.04 52.01" style="fill: rgb(0, 51, 161);" transform="translate(-148.280,-26.004)"></path></g><g class="path" style="opacity: 1; transform-origin: -43.28px 18.26px; transform: matrix3d(1, 0, 0, 0, 0, 1, 0, 0, 0, 0, 1, 0, 0, 0, 0, 1); animation: 1.66667s linear -0.711111s 50 normal forwards running animate-qqhmh83z2c; transform-box: view-box;"><path d="M106.08 52.97L106.08 52.97Q97.12 52.97 91.88 47.25Q86.64 41.53 86.64 31.21L86.64 31.21Q86.64 24.97 89 20.05Q91.36 15.13 95.60 12.29Q99.84 9.45 105.44 9.45L105.44 9.45Q111.44 9.45 115.40 12.05Q119.36 14.65 121.36 19.05Q123.36 23.45 123.36 28.73L123.36 28.73Q123.36 31.53 123.12 34.17L123.12 34.17L94 34.17Q94.72 40.01 98.08 43.29Q101.44 46.57 106.96 46.57L106.96 46.57Q110.56 46.57 113.44 45.81Q116.32 45.05 118.96 43.85L118.96 43.85L120.64 50.01Q117.76 51.29 114.16 52.13Q110.56 52.97 106.08 52.97 zM93.92 28.33L93.92 28.33L116.72 28.33Q116.72 22.25 113.68 18.97Q110.64 15.69 105.28 15.69L105.28 15.69Q100.64 15.69 97.60 18.93Q94.56 22.17 93.92 28.33" style="fill: rgb(0, 51, 161);" transform="translate(-148.280,-26.004)"></path></g><g class="path" style="opacity: 1; transform-origin: 2.16px 17.49px; transform: matrix3d(1, 0, 0, 0, 0, 1, 0, 0, 0, 0, 1, 0, 0, 0, 0, 1); animation: 1.66667s linear -0.592593s 50 normal forwards running animate-qqhmh83z2c; transform-box: view-box;"><path d="M140.16 52.01L132.96 52.01L132.96 10.41L139.92 10.41L139.92 17.37Q142.16 14.01 145.64 11.73Q149.12 9.45 153.92 9.45L153.92 9.45Q160.96 9.45 164.44 13.69Q167.92 17.93 167.92 24.89L167.92 24.89L167.92 52.01L160.72 52.01L160.72 25.69Q160.72 21.21 158.60 18.49Q156.48 15.77 152.72 15.77L152.72 15.77Q149.04 15.77 145.76 18.37Q142.48 20.97 140.16 24.49L140.16 24.49L140.16 52.01" style="fill: rgb(0, 51, 161);" transform="translate(-148.280,-26.004)"></path></g><g class="path" style="opacity: 1; transform-origin: 41.52px 16.13px; transform: matrix3d(1, 0, 0, 0, 0, 1, 0, 0, 0, 0, 1, 0, 0, 0, 0, 1); animation: 1.66667s linear -0.474074s 50 normal forwards running animate-qqhmh83z2c; transform-box: view-box;"><path d="M194.88 52.97L194.88 52.97Q188.88 52.97 185.40 49.01Q181.92 45.05 181.92 37.69L181.92 37.69L181.92 18.17L174.72 18.17L174.72 11.93L182.08 11.93L183.60-1.19L189.12-1.19L189.12 11.93L200.64 11.93L200.64 18.17L189.12 18.17L189.12 38.25Q189.12 42.89 191.08 44.73Q193.04 46.57 195.76 46.57L195.76 46.57Q197.76 46.57 199.56 45.93Q201.36 45.29 202.88 44.41L202.88 44.41L204.88 50.17Q203.28 51.13 200.56 52.05Q197.84 52.97 194.88 52.97" style="fill: rgb(0, 51, 161);" transform="translate(-148.280,-26.004)"></path></g><g class="path" style="opacity: 1; transform-origin: 76.16px 17.49px; transform: matrix3d(1, 0, 0, 0, 0, 1, 0, 0, 0, 0, 1, 0, 0, 0, 0, 1); animation: 1.66667s linear -0.355556s 50 normal forwards running animate-qqhmh83z2c; transform-box: view-box;"><path d="M219.28 52.01L212.08 52.01L212.08 10.41L219.04 10.41L219.04 19.45Q220.08 16.81 221.84 14.53Q223.60 12.25 226.24 10.85Q228.88 9.45 232.40 9.45L232.40 9.45Q233.60 9.45 234.80 9.57Q236 9.69 236.80 9.93L236.80 9.93L234.64 17.37Q233.12 16.73 231.04 16.73L231.04 16.73Q228.08 16.73 225.40 18.41Q222.72 20.09 221 23.61Q219.28 27.13 219.28 32.57L219.28 32.57L219.28 52.01" style="fill: rgb(0, 51, 161);" transform="translate(-148.280,-26.004)"></path></g><g class="path" style="opacity: 1; transform-origin: 99.32px 17.69px; transform: matrix3d(1, 0, 0, 0, 0, 1, 0, 0, 0, 0, 1, 0, 0, 0, 0, 1); animation: 1.66667s linear -0.237037s 50 normal forwards running animate-qqhmh83z2c; transform-box: view-box;"><path d="M251.20 52.01L244 52.01L244 10.41L251.20 10.41L251.20 52.01" style="fill: rgb(0, 51, 161);" transform="translate(-148.280,-26.004)"></path></g><g class="path" style="opacity: 1; transform-origin: 99.32px -24.73px; transform: matrix3d(1, 0, 0, 0, 0, 1, 0, 0, 0, 0, 1, 0, 0, 0, 0, 1); animation: 1.66667s linear -0.118519s 50 normal forwards running animate-qqhmh83z2c; transform-box: view-box;"><path d="M247.60 3.29L247.60 3.29Q245.52 3.29 244.04 1.77Q242.56 0.25 242.56-1.75L242.56-1.75Q242.56-4.07 243.92-5.43Q245.28-6.79 247.60-6.79L247.60-6.79Q249.68-6.79 251.16-5.31Q252.64-3.83 252.64-1.75L252.64-1.75Q252.64 0.49 251.28 1.89Q249.92 3.29 247.60 3.29" style="fill: rgb(0, 51, 161);" transform="translate(-148.280,-26.004)"></path></g><g class="path" style="opacity: 1; transform-origin: 134.2px 18.26px; transform: matrix3d(1, 0, 0, 0, 0, 1, 0, 0, 0, 0, 1, 0, 0, 0, 0, 1); animation: 1.66667s linear 0s 50 normal forwards running animate-qqhmh83z2c; transform-box: view-box;"><path d="M279.92 52.97L279.92 52.97Q274.72 52.97 270.48 50.33Q266.24 47.69 263.72 42.85Q261.20 38.01 261.20 31.45L261.20 31.45Q261.20 25.21 263.72 20.25Q266.24 15.29 270.68 12.37Q275.12 9.45 280.88 9.45L280.88 9.45Q284.48 9.45 287.40 10.69Q290.32 11.93 292.48 13.77L292.48 13.77L292.48 10.41L299.04 10.41L299.04 41.93Q299.04 44.97 300.52 45.89Q302 46.81 303.76 46.81L303.76 46.81L302.24 52.41Q294.56 52.41 292.96 46.17L292.96 46.17Q291.12 48.73 287.96 50.85Q284.80 52.97 279.92 52.97 zM281.52 46.57L281.52 46.57Q284.56 46.57 287.28 45.09Q290 43.61 291.84 41.37L291.84 41.37L291.84 19.05Q289.68 17.53 287.08 16.61Q284.48 15.69 281.60 15.69L281.60 15.69Q277.76 15.69 274.84 17.65Q271.92 19.61 270.24 23.09Q268.56 26.57 268.56 31.21L268.56 31.21Q268.56 35.69 270.24 39.17Q271.92 42.65 274.88 44.61Q277.84 46.57 281.52 46.57" style="fill: rgb(0, 51, 161);" transform="translate(-148.280,-26.004)"></path></g></g><text dy="0.35em" fill="#0033a1" font-family="ABeeZee" font-size="68">Eventria</text>
</g>
</g><style type="text/css">@keyframes animate-qqhmh83z2c { 0.00% {transform: translate(0.00px,0.00px) rotate(0.00deg) scale(1.00, 1.00) skew(0deg, 0.00deg) ;opacity: 1.00;}2.00% {animation-timing-function: cubic-bezier(0.20,0.39,0.50,0.97);transform: translate(0.00px,-1.08px) rotate(0.00deg) ;}36.00% {animation-timing-function: cubic-bezier(0.50,0.03,0.80,0.61);transform: translate(0.00px,-10.00px) rotate(0.00deg) ;}72.00% {transform: translate(0.00px,-0.12px) rotate(0.00deg) ;}74.00% {animation-timing-function: cubic-bezier(0.24,0.43,0.48,0.91);transform: translate(0.00px,0.00px) rotate(0.00deg) scale(1.00, 0.95) ;}86.00% {animation-timing-function: cubic-bezier(0.53,0.08,0.77,0.57);transform: translate(0.00px,0.00px) rotate(0.00deg) scale(1.00, 0.80) ;}100.00% {animation-timing-function: cubic-bezier(0.53,0.08,0.77,0.57);transform: translate(0.00px,0.00px) rotate(0.00deg) scale(1.00, 1.00) ;} }</style><!-- [ldio] generated by https://loading.io --></svg>